<?xml version="1.0" encoding="UTF-8"?>
<svg version="1.1" xmlns="http://www.w3.org/2000/svg" width="500" height="500">
<path d="M0 0 C1.79620285 0.10488991 1.79620285 0.10488991 3.62869263 0.2118988 C18.4787888 1.14636986 33.18214762 2.79019195 47.875 5.125 C47.96776894 15.06084837 48.03879998 24.99659333 48.08224869 34.93278694 C48.10310426 39.54681851 48.13138462 44.16055329 48.17675781 48.77441406 C48.22028828 53.22887963 48.24415238 57.68306012 48.25450897 62.13772202 C48.26188745 63.83537151 48.27629606 65.53300579 48.29792023 67.2305336 C48.3270508 69.61252543 48.3309521 71.99334636 48.32910156 74.37548828 C48.34348267 75.07392349 48.35786377 75.7723587 48.37268066 76.49195862 C48.33071205 81.49994426 47.20026937 84.39387608 43.875 88.125 C38.78906065 90.76378364 35.04713353 91.49799397 29.23768616 91.48576355 C28.50074931 91.48832682 27.76381246 91.4908901 27.0045442 91.49353105 C24.55236245 91.49844511 22.10080599 91.48201601 19.64868164 91.46557617 C17.8841249 91.46472938 16.11956711 91.46520605 14.35501099 91.46690369 C9.57655917 91.46776304 4.7983341 91.45014692 0.01993489 91.42918181 C-4.97819918 91.41040508 -9.97633867 91.40866378 -14.97450256 91.40510559 C-24.43392434 91.39578807 -33.89324188 91.3711782 -43.3526178 91.34105712 C-54.12402361 91.30750405 -64.89543445 91.29102481 -75.66687953 91.27597082 C-97.81964449 91.24462842 -119.97231568 91.19187356 -142.125 91.125 C-134.2255029 74.32881545 -117.97954359 59.43843836 -105.625 45.875 C-104.30437435 44.42243679 -104.30437435 44.42243679 -102.9570694 42.94052887 C-72.02892868 9.29264198 -45.7469865 -2.67783742 0 0 Z " fill="#9A2A2A" transform="translate(297.125,96.875)"/>
<path d="M0 0 C1.0776424 0.0617894 2.15528481 0.1235788 3.26558304 0.1872406 C14.05597753 0.85290449 24.7879021 1.91462036 35.46582031 3.61962891 C36.22262116 3.73386578 36.97942202 3.84810265 37.75915623 3.96580124 C43.67043754 5.00617853 47.83891459 6.9673871 51.5997467 11.70533752 C53.01800914 14.99703165 53.13762931 17.50636968 53.15405273 21.08959961 C53.16091599 21.74393478 53.16777924 22.39826996 53.17485046 23.07243347 C53.19307428 25.22429422 53.18928759 27.37542277 53.18359375 29.52734375 C53.18815783 31.03040299 53.19346408 32.53346014 53.19947815 34.03651428 C53.20840062 37.18287649 53.20599629 40.32898477 53.19604492 43.4753418 C53.18455825 47.49821752 53.20476546 51.52021505 53.23396206 55.54297543 C53.25234966 58.64605738 53.25202655 61.7489299 53.24632454 64.85205269 C53.24617162 66.33475539 53.25219132 67.81747256 53.26461601 69.30012321 C53.27957339 71.37763678 53.26881724 73.45354104 53.25170898 75.53100586 C53.25154282 76.71061386 53.25137665 77.89022186 53.25120544 79.10557556 C52.62211707 83.209196 51.47648841 85.24782643 48.75 88.375 C43.66641371 91.01838432 39.92132763 91.74799227 34.11268616 91.73576355 C33.37574931 91.73832682 32.63881246 91.7408901 31.8795442 91.74353105 C29.42736245 91.74844511 26.97580599 91.73201601 24.52368164 91.71557617 C22.7591249 91.71472938 20.99456711 91.71520605 19.23001099 91.71690369 C14.45155917 91.71776304 9.6733341 91.70014692 4.89493489 91.67918181 C-0.10319918 91.66040508 -5.10133867 91.65866378 -10.09950256 91.65510559 C-19.55892434 91.64578807 -29.01824188 91.6211782 -38.4776178 91.59105712 C-49.24902361 91.55750405 -60.02043445 91.54102481 -70.79187953 91.52597082 C-92.94464449 91.49462842 -115.09731568 91.44187356 -137.25 91.375 C-129.3757418 74.55623678 -112.61735051 59.63405769 -100.1875 46.125 C-99.29849503 45.15721367 -98.40949005 44.18942734 -97.49354553 43.19231415 C-68.0949774 11.51605599 -43.68676218 -2.60549879 0 0 Z " fill="#9A2A2A" transform="translate(187.25,201.625)"/>
<path d="M0 0 C0.74424953 -0.0034177 1.48849905 -0.0068354 2.25530159 -0.01035666 C4.7383982 -0.01692271 7.22040338 0.0050182 9.70339966 0.0269165 C11.48751296 0.02804526 13.27162813 0.02741057 15.05574036 0.02514648 C19.89217089 0.02399952 24.72820405 0.04750609 29.56454229 0.07544231 C34.62139715 0.1004588 39.67826127 0.10279817 44.73516846 0.10754395 C54.30799239 0.11997298 63.88063346 0.15279367 73.45337689 0.1929419 C84.35292007 0.23766181 95.25247202 0.25964722 106.15208411 0.27972364 C128.57049508 0.32152631 150.98874376 0.39187704 173.40701294 0.48101807 C171.84323795 3.80403993 170.19348143 6.04285814 167.40701294 8.48101807 C166.74701294 8.48101807 166.08701294 8.48101807 165.40701294 8.48101807 C165.19842651 9.01426697 164.98984009 9.54751587 164.77493286 10.09692383 C162.86215577 13.43062836 160.22683486 15.9392284 157.52029419 18.62652588 C156.91849335 19.23183136 156.3166925 19.83713684 155.69665527 20.46078491 C153.70927164 22.45696018 151.71467464 24.4457441 149.71951294 26.43414307 C148.33681429 27.81818874 146.95441267 29.20253122 145.57229614 30.5871582 C142.67701972 33.48538212 139.77815879 36.37995982 136.8767395 39.27203369 C133.15058285 42.9867748 129.43350407 46.71044984 125.71903992 50.4368782 C122.86772716 53.29540146 120.01168849 56.1491644 117.1541748 59.00148773 C115.7811177 60.3732072 114.40955427 61.74642345 113.03948975 63.1211319 C111.12902198 65.03665385 109.21230417 66.94568887 107.29373169 68.85308838 C106.72431854 69.42654999 106.1549054 70.0000116 105.5682373 70.59085083 C101.63554379 74.48101807 101.63554379 74.48101807 99.40701294 74.48101807 C99.13888794 75.12039307 98.87076294 75.75976807 98.59451294 76.41851807 C97.40701294 78.48101807 97.40701294 78.48101807 94.40701294 79.48101807 C94.40701294 80.14101807 94.40701294 80.80101807 94.40701294 81.48101807 C93.74701294 81.48101807 93.08701294 81.48101807 92.40701294 81.48101807 C91.91201294 82.96601807 91.91201294 82.96601807 91.40701294 84.48101807 C87.4781732 87.10024456 84.12451528 86.77637595 79.56448364 86.77154541 C78.66006027 86.77826263 77.7556369 86.78497986 76.82380676 86.79190063 C73.82674699 86.81093382 70.82991068 86.81480803 67.83279419 86.81695557 C65.74874275 86.82338164 63.66469223 86.83010985 61.5806427 86.83712769 C57.20674551 86.84911506 52.83292736 86.85280719 48.45901489 86.85162354 C42.86475364 86.85142069 37.27100235 86.87868123 31.67686176 86.91316795 C27.36932569 86.93545395 23.06191178 86.93946049 18.75432396 86.93840408 C16.69272294 86.94075908 14.63111851 86.94957684 12.56957436 86.96506882 C9.6781969 86.98475536 6.78791149 86.97887929 3.89651489 86.96685791 C2.62827377 86.98371643 2.62827377 86.98371643 1.33441162 87.00091553 C-4.39557382 86.94064825 -8.88049262 85.8586689 -13.59298706 82.48101807 C-16.78568501 78.71690801 -16.97138332 75.59680625 -16.98117065 70.75054932 C-16.98642761 70.09460785 -16.99168457 69.43866638 -16.99710083 68.7628479 C-17.01024695 66.60615854 -17.00158261 64.45021423 -16.99142456 62.29351807 C-16.99344686 60.78806416 -16.9963596 59.28261121 -17.00012207 57.77716064 C-17.0045381 54.62659348 -16.99813785 51.476282 -16.98410034 48.32574463 C-16.96700861 44.29392646 -16.9768537 40.26270746 -16.99481773 36.23091125 C-17.00567524 33.12359123 -17.00220027 30.01641249 -16.99443436 26.90908813 C-16.99243777 25.42277963 -16.99487257 23.93645816 -17.00187302 22.45016479 C-17.00952026 20.37026144 -16.9978392 18.29131889 -16.98117065 16.21148682 C-16.97878387 15.0296582 -16.97639709 13.84782959 -16.97393799 12.63018799 C-16.38163036 7.73381623 -14.77596523 5.42857991 -10.95187759 2.36549759 C-7.13443124 0.22374888 -4.25343579 -0.07215994 0 0 Z " fill="#8B0000" transform="translate(276.5929870605469,206.51898193359375)"/>
<path d="M0 0 C0.74424953 -0.0034177 1.48849905 -0.0068354 2.25530159 -0.01035666 C4.7383982 -0.01692271 7.22040338 0.0050182 9.70339966 0.0269165 C11.48751296 0.02804526 13.27162813 0.02741057 15.05574036 0.02514648 C19.89217089 0.02399952 24.72820405 0.04750609 29.56454229 0.07544231 C34.62139715 0.1004588 39.67826127 0.10279817 44.73516846 0.10754395 C54.30799239 0.11997298 63.88063346 0.15279367 73.45337689 0.1929419 C84.35292007 0.23766181 95.25247202 0.25964722 106.15208411 0.27972364 C128.57049508 0.32152631 150.98874376 0.39187704 173.40701294 0.48101807 C169.93217887 6.39501143 169.93217887 6.39501143 167.40701294 8.48101807 C166.74701294 8.48101807 166.08701294 8.48101807 165.40701294 8.48101807 C165.17240356 9.04176025 164.93779419 9.60250244 164.69607544 10.18023682 C163.0931205 13.04126851 161.12028064 14.99506607 158.78201294 17.29351807 C157.96474731 18.10433838 157.14748169 18.91515869 156.30545044 19.75054932 C154.81669093 21.153033 153.31729645 22.55162316 151.71000671 23.81652832 C146.82982286 27.73033718 143.33149809 32.10683223 139.73477364 37.20656109 C124.83058209 58.27000972 105.68547381 83.92042296 78.84231853 88.67702198 C47.50865157 93.02910666 14.71724578 89.81450101 -16.59298706 86.48101807 C-16.66252265 76.52786357 -16.71581644 66.57476695 -16.74842358 56.62141895 C-16.76407403 51.99958015 -16.78530099 47.37790765 -16.81930542 42.75616455 C-16.85192098 38.29523269 -16.86984474 33.83446071 -16.87761879 29.37341881 C-16.88315835 27.67217174 -16.89397582 25.97093335 -16.91017723 24.26975441 C-16.93198097 21.88531262 -16.9349528 19.50152997 -16.93356323 17.11700439 C-16.94434906 16.41497391 -16.95513489 15.71294342 -16.96624756 14.98963928 C-16.9387063 10.61693408 -16.37086937 7.88684789 -13.59298706 4.48101807 C-9.08030084 0.87266823 -5.65087427 -0.09586762 0 0 Z " fill="#8B0000" transform="translate(171.59298706054688,311.51898193359375)"/>
</svg>
